<svg fill="#8a9aa5" viewBox="-7 0 32 32" version="1.1" xmlns="http://www.w3.org/2000/svg"><g id="SVGRepo_bgCarrier" stroke-width="0"></g><g id="SVGRepo_tracerCarrier" stroke-linecap="round" stroke-linejoin="round"></g><g id="SVGRepo_iconCarrier"> <title>key</title> <path d="M4.28 20.28c-2.36 0-4.28-1.92-4.28-4.28s1.92-4.28 4.28-4.28c1.48 0 2.88 0.8 3.64 2.040h8c1.24 0 2.28 1 2.28 2.28 0 1.24-1 2.28-2.28 2.28-0.080 0-0.28 0.12-0.44 0.24-0.32 0.2-0.76 0.48-1.36 0.48s-1.040-0.28-1.36-0.48c-0.16-0.12-0.36-0.24-0.44-0.24s-0.28 0.12-0.44 0.24c-0.32 0.2-0.76 0.48-1.36 0.48s-1.040-0.28-1.36-0.48c-0.16-0.12-0.36-0.24-0.44-0.24h-0.8c-0.76 1.2-2.12 1.96-3.64 1.96zM4.28 13.36c-1.44 0-2.64 1.2-2.64 2.64s1.2 2.64 2.64 2.64c1.040 0 1.96-0.6 2.4-1.56 0.12-0.28 0.44-0.48 0.76-0.48h1.28c0.6 0 1.040 0.28 1.36 0.48 0.16 0.12 0.36 0.24 0.44 0.24s0.28-0.12 0.44-0.24c0.32-0.2 0.76-0.48 1.36-0.48s1.040 0.28 1.36 0.48c0.16 0.12 0.36 0.24 0.44 0.24s0.28-0.12 0.44-0.24c0.32-0.2 0.76-0.48 1.36-0.48 0.32 0 0.6-0.28 0.6-0.6s-0.28-0.6-0.6-0.6h-8.48c-0.32 0-0.6-0.2-0.76-0.48-0.4-0.96-1.36-1.56-2.4-1.56zM4.96 16c0 0.486-0.394 0.88-0.88 0.88s-0.88-0.394-0.88-0.88c0-0.486 0.394-0.88 0.88-0.88s0.88 0.394 0.88 0.88z"></path> </g></svg>